<svg xmlns="http://www.w3.org/2000/svg" xmlns:xlink="http://www.w3.org/1999/xlink" viewBox="199.86 279.63 952.09 809.87">
	<path fill="#013C58" transform="scale(2.63329 2.63329)" d="M208.642 336.176C213.37 335.859 218.287 336.167 223.04 336.169L366.808 336.194C373.71 336.201 381.016 336.716 387.783 335.165C405.048 331.21 419.119 315.156 421.532 297.668C422.711 289.124 422.217 280.216 422.211 271.604L422.204 181.592C422.206 168.281 423.723 153.967 419.555 141.111C419.012 139.439 418.286 137.749 417.894 136.038L417.787 135.549C438.818 152.345 437.295 172.015 437.295 195.831L437.29 288.178C437.289 297.793 438.024 308.136 436.421 317.625C433.064 337.507 414.853 354.079 394.971 356.15C389.434 356.727 383.626 356.296 378.053 356.292L263.417 356.285C249.741 356.284 235.999 355.997 222.33 356.288C218.903 359.3 216.513 363.315 213.604 366.791C203.408 378.97 193.771 391.591 183.644 403.816C181.445 406.47 179.609 409.742 177.139 412.11C173.808 415.303 169.343 413.506 168.554 409.271C167.805 405.25 167.868 390.681 168.245 386C170.759 381.72 174.604 378.001 177.689 374.099C187.81 361.298 198.272 348.776 208.642 336.176Z"/>
	<path fill="#F5A201" transform="scale(2.63329 2.63329)" d="M403.621 117.254C410.058 124.008 413.067 130.341 417.787 135.549L417.894 136.038C418.286 137.749 419.012 139.439 419.555 141.111C423.723 153.967 422.206 168.281 422.204 181.592L422.211 271.604C422.217 280.216 422.711 289.124 421.532 297.668C419.119 315.156 405.048 331.21 387.783 335.165C381.016 336.716 373.71 336.201 366.808 336.194L223.04 336.169C218.287 336.167 213.37 335.859 208.642 336.176C198.272 348.776 187.81 361.298 177.689 374.099C174.604 378.001 170.759 381.72 168.245 386C165.567 388.428 163.322 392.949 159.236 392.909C150.728 392.824 152.463 380.453 152.461 374.905L152.471 356.288C123.766 356.338 100.609 355.291 90.05 322.971C89.354 320.742 85.8817 317.594 84.4783 315.448C75.8881 302.308 75.9747 294.204 76.0089 279.342C79.51 281.614 80.4209 289.574 82.7511 293.349C96.4362 315.516 114.423 316.498 138.353 316.477L360.571 316.476C382.94 316.46 405.841 311.25 409.586 284.156C410.678 276.26 410.134 268.143 410.16 260.189L410.203 166.327C410.187 152.168 411.523 138.779 405.82 125.459C404.817 123.116 401.715 119.677 403.621 117.254Z"/>
	<path fill="#013C58" transform="scale(2.63329 2.63329)" d="M90.05 322.971C92.0573 323.448 93.6933 325.774 95.2913 327.004C106.939 335.974 117.557 336.189 131.489 336.189L152.471 336.176L152.471 356.288C123.766 356.338 100.609 355.291 90.05 322.971Z"/>
	<path fill="#FFBA42" transform="scale(2.63329 2.63329)" d="M76.0089 279.342L76.0005 160.921C75.9945 155.67 75.6066 150.065 76.369 144.863C79.0672 126.455 93.39 109.818 112.197 106.823C117.682 105.95 123.354 106.232 128.892 106.235L360.893 106.236C378.797 106.234 388.057 106.06 403.621 117.254C401.715 119.677 404.817 123.116 405.82 125.459C411.523 138.779 410.187 152.168 410.203 166.327L410.16 260.189C410.134 268.143 410.678 276.26 409.586 284.156C405.841 311.25 382.94 316.46 360.571 316.476L138.353 316.477C114.423 316.498 96.4362 315.516 82.7511 293.349C80.4209 289.574 79.51 281.614 76.0089 279.342Z"/>
	<path fill="#FFD35B" transform="scale(2.63329 2.63329)" d="M302.832 117.254C308.256 117.729 318.733 115.277 319.249 123.364C319.532 127.803 315.706 129.953 311.839 130.049C303.704 130.067 298.004 132.357 294.646 123.599C296.383 119.671 298.382 117.95 302.832 117.254Z"/>
	<path fill="#00537A" transform="scale(2.63329 2.63329)" d="M333.487 188.29C337.678 195.503 337.012 197.996 337.014 206.172L337.015 251.194C337.018 256.897 337.877 263.3 336.317 268.868C332.927 280.961 308.136 283.952 310.231 255.619C312.282 265.108 323.793 268.627 330.521 261.111C334.354 256.829 333.527 251.23 333.513 245.942L333.483 202.552C333.492 197.799 333.656 193.04 333.487 188.29Z"/>
	<path fill="#00537A" transform="scale(2.63329 2.63329)" d="M399.56 227.712C404.034 236.648 406.474 249.081 403.265 258.748C395.29 282.772 353.626 281.187 345.291 265.074C343.525 261.66 345.927 258.677 345.005 256.814C346.521 257.606 347.931 258.566 349.383 259.465C364.813 269.019 387.755 268.579 397.9 251.703C402.933 243.331 401.75 236.4 399.56 227.712Z"/>
	<path fill="#00537A" transform="scale(2.63329 2.63329)" d="M241.858 195.713C250.395 207.599 248.531 218.71 248.535 232.612C248.539 248.961 250.163 260.29 234.882 271.245C219.181 282.501 194.577 279.889 183.231 263.655C176.998 254.737 177.865 246.929 178.013 236.65C180.627 258.342 201.994 270.42 222.614 263.948C245.366 256.806 244.249 242.048 244.275 223.421C244.288 213.771 244.89 205.018 241.858 195.713Z"/>
	<path fill="#00537A" transform="scale(2.63329 2.63329)" d="M166.818 182.76C170.916 186.795 172.673 188.996 172.709 194.857L172.712 240.411C172.713 247.542 173.407 260.86 171.988 267.193C169.945 276.313 157.018 280.853 150.403 273.772C143.004 265.853 135.127 250.166 127.99 240.691C127.859 247.39 128.846 262.773 127.277 268.322C124.74 277.289 112.151 280.078 105.808 273.254C101.583 268.709 102.22 261.386 102.285 255.619C103.701 266.531 120.401 268.603 122.969 257.283C124.62 250.01 122.703 231.296 123.279 222.362C125.465 226.252 128.61 229.914 131.103 233.652L142.466 250.51C146.925 257.099 152.74 268.668 162.628 263.78C170.405 259.935 168.246 249.51 168.251 242.406L168.25 201.414C168.248 196.61 169.243 187.035 166.818 182.76Z"/>
	<path fill="#A8E8F9" transform="scale(2.63329 2.63329)" d="M342.454 209.122C335.904 175.014 389.334 169.485 399.56 194.474C402.84 201.577 406.077 212.614 396.937 216.822C395.155 217.643 393.16 217.853 391.401 218.622C394.974 221.557 396.719 224.185 399.56 227.712C401.75 236.4 402.933 243.331 397.9 251.703C387.755 268.579 364.813 269.019 349.383 259.465C347.931 258.566 346.521 257.606 345.005 256.814C340.342 250.8 341.072 240.138 349.041 238.097C356.099 236.29 361.798 248.892 376.144 245.431C361.827 231.477 346.286 242.375 342.454 209.122Z"/>
	<path fill="#00537A" transform="scale(2.63329 2.63329)" d="M342.454 209.122C349.978 228.528 375.971 227.87 379.667 238.261C380.71 241.194 378.905 244.292 376.144 245.431C361.827 231.477 346.286 242.375 342.454 209.122Z"/>
	<path fill="#00537A" transform="scale(2.63329 2.63329)" d="M399.56 194.474C402.84 201.577 406.077 212.614 396.937 216.822C395.155 217.643 393.16 217.853 391.401 218.622C389.276 218.022 384.831 215.082 382.716 213.893C379.396 213.441 375.239 211.548 372.224 210.096C362.649 207.176 358.869 199.62 369.376 198.051C380.172 196.438 383.693 205.972 390.605 206.138C396.809 206.287 399.514 199.706 399.56 194.474Z"/>
	<path fill="#BAA869" transform="scale(2.63329 2.63329)" d="M372.224 210.096L372.391 209.415C375.546 208.813 380.572 211.424 382.716 213.893C379.396 213.441 375.239 211.548 372.224 210.096Z"/>
	<path fill="#A8E8F9" transform="scale(2.63329 2.63329)" d="M147.144 216.549C147.66 215.606 147.005 191.888 147.077 189.164C147.368 178.042 159.697 174.117 166.818 182.76C169.243 187.035 168.248 196.61 168.25 201.414L168.251 242.406C168.246 249.51 170.405 259.935 162.628 263.78C152.74 268.668 146.925 257.099 142.466 250.51L131.103 233.652C128.61 229.914 125.465 226.252 123.279 222.362C122.703 231.296 124.62 250.01 122.969 257.283C120.401 268.603 103.701 266.531 102.285 255.619C102.064 234.757 100.938 208.165 102.36 187.606C102.914 179.598 114.852 174.083 121.793 182.76C127.57 187.501 141.545 209.459 147.144 216.549Z"/>
	<path fill="#00537A" transform="scale(2.63329 2.63329)" d="M121.793 182.76C127.57 187.501 141.545 209.459 147.144 216.549C147.645 218.308 147.266 220.54 147.144 222.362C140.006 209.017 129.328 196.459 121.793 182.76Z"/>
	<path fill="#FFD35B" transform="scale(2.63329 2.63329)" d="M190.776 117.254L270.849 117.239C274.767 117.226 283.134 116.064 286.373 118.816C288.677 120.773 288.828 126.184 286.712 128.307C283.913 131.115 272.656 130.051 268.642 130.033L147.699 130.038C134.239 130.035 121.41 129.438 111.068 139.796C96.1368 154.748 99.9787 188.241 99.9923 209.122C99.9649 226.516 99.736 244.347 99.9903 261.679C100.073 267.285 102.693 288.336 99.3757 292.39C97.2413 294.998 93.5351 293.953 91.3908 291.903C86.1694 286.913 88.1268 271.045 88.0889 263.028L88.0621 160.886C88.047 142.529 89.7461 124.269 111.838 118.599C120.476 116.382 136.225 117.246 145.651 117.245L190.776 117.254Z"/>
	<path fill="#A8E8F9" transform="scale(2.63329 2.63329)" d="M178.013 236.65L177.998 218.286C177.995 212.851 177.542 206.958 178.865 201.653C185.698 174.249 225.611 167.711 241.858 195.713C244.89 205.018 244.288 213.771 244.275 223.421C244.249 242.048 245.366 256.806 222.614 263.948C201.994 270.42 180.627 258.342 178.013 236.65Z"/>
	<path fill="#00537A" transform="scale(2.63329 2.63329)" d="M203.198 244.165C194.26 240.46 196.25 212.511 197.833 206.261C201.065 193.506 225.53 190.793 225.249 212.919C218.957 204.805 203.136 206.597 201.822 217.89C201.365 221.813 200.499 241.941 203.198 244.165Z"/>
	<path fill="#FFBA42" transform="scale(2.63329 2.63329)" d="M203.198 244.165C200.499 241.941 201.365 221.813 201.822 217.89C203.136 206.597 218.957 204.805 225.249 212.919L225.265 227.876C225.266 232.481 226.39 238.538 222.827 242.154C217.968 247.085 209.032 247.728 203.198 244.165Z"/>
	<path fill="#A8E8F9" transform="scale(2.63329 2.63329)" d="M293.892 211.862C301.195 203.719 306.293 188.368 314.535 180.783C321.527 174.349 331.217 180.541 333.487 188.29C333.656 193.04 333.492 197.799 333.483 202.552L333.513 245.942C333.527 251.23 334.354 256.829 330.521 261.111C323.793 268.627 312.282 265.108 310.231 255.619C310.097 253.033 310.222 250.367 310.231 247.774C310.253 246.579 310.33 245.357 310.231 244.165C299.731 255.906 290.035 257.008 279.456 244.165C279.45 250.816 280.137 262.411 278.143 268.362C275.251 276.993 263.622 280.297 257.214 273.523C253.106 269.18 253.237 262.37 253.248 256.814C251.833 253.042 252.671 243.879 252.669 239.689L252.671 200.371C252.675 193.71 251.49 185.454 257.514 180.939C268.621 172.614 275.018 184.119 280.194 191.787C284.703 198.467 289.106 205.384 293.892 211.862Z"/>
	<path fill="#00537A" transform="scale(2.63329 2.63329)" d="M275.509 226.012C290.672 246.41 296.324 247.183 310.231 226.012C310.12 233.259 310.228 240.526 310.231 247.774C310.253 246.579 310.33 245.357 310.231 244.165C299.731 255.906 290.035 257.008 279.456 244.165C279.45 250.816 280.137 262.411 278.143 268.362C275.251 276.993 263.622 280.297 257.214 273.523C253.106 269.18 253.237 262.37 253.248 256.814C256.242 264.706 265.232 268.738 272.13 262.138C277.627 256.878 275.32 234.286 275.509 226.012Z"/>
</svg>