<svg xmlns="http://www.w3.org/2000/svg" xmlns:xlink="http://www.w3.org/1999/xlink" viewBox="179.03 500.22 993.13 340.08">
	<path fill="#F51C33" transform="scale(2.63329 2.63329)" d="M393.638 191.252C407.442 190.413 433.288 196.975 438.134 211.589C440.434 218.523 435.982 225.545 429.074 227.357C417.676 230.346 410.269 211.618 393.577 215.962C387.603 217.517 381.668 224.239 383.757 230.726C389.021 247.075 432.68 240.152 443.134 272.157C450.675 295.245 435.894 312.143 414.987 318.748C400.175 320.474 384.56 315.848 372.386 307.394C360.655 299.247 367.816 281.584 381.956 285.678C391.273 288.376 398.603 296.669 410.456 294.634C417.212 293.474 421.911 287.596 420.656 280.751C417.264 262.263 366.282 268.229 360.423 234.892C356.451 212.29 371.891 194.88 393.638 191.252Z"/>
	<path fill="#F51C33" transform="scale(2.63329 2.63329)" d="M83.5014 191.252C94.9008 191.164 98.286 207.518 102.034 216.24C108.366 230.977 118.618 254.839 128.248 267.847C128.611 264.006 128.195 259.982 128.301 256.104C128.624 244.373 129.782 204.92 135.387 198.109C142.254 189.764 156.42 195.27 156.626 203.787C156.979 218.39 154.012 239.308 153.366 255.077L152.151 289.296C151.885 299.126 154.038 308.834 143.575 313.824C140.58 314.634 137.571 314.942 134.524 314.156C120.6 310.563 101.647 268.794 92.6807 254.188L92.4616 253.835C92.4833 264.759 94.3729 279.181 96.5326 290.11C97.9177 297.12 102.377 306.439 97.393 312.921C91.3561 320.772 79.7201 318.286 75.9559 309.455C67.8958 290.547 63.1872 208.132 75.6114 194.648C77.7924 192.281 80.3841 191.423 83.5014 191.252Z"/>
	<path fill="#F51C33" transform="scale(2.63329 2.63329)" d="M334.025 190.066C353.409 187.691 350.965 225.714 351.342 237.945C351.814 253.232 352.351 268.767 353.838 283.994C354.44 290.147 355.368 296.341 355.67 302.514C356.401 317.488 336.856 321.187 332.025 309.345C325.571 293.525 331.465 247.935 327.887 239.381C327.374 239.397 324.992 245.964 324.561 247.089C321.324 255.538 317.155 271.376 305.508 270.784C294.809 270.241 285.711 250.441 278.975 242.979L278.742 242.724L278.742 260.043C279.856 268.777 279.956 277.718 280.858 286.501C281.408 291.85 283.701 302.689 283.271 307.353C282.367 317.141 267.312 321.257 261.574 313.33C254.592 303.682 253.594 250.566 253.475 238.265C253.378 228.233 251.177 203.163 260.581 196.481C264.809 193.477 270.264 193.187 274.464 196.311C282.734 202.463 297.397 223.865 303.387 233.339C309.606 220.384 319.072 192.51 334.025 190.066Z"/>
	<path fill="#F51C33" transform="scale(2.63329 2.63329)" d="M200.671 194.259C210.229 194.064 219.44 195.541 227.489 201.059C260.478 223.675 260.078 306.944 212.236 315.673L211.906 315.727C181.548 320.527 167.579 292.223 163.809 266.512C159.304 235.79 164.478 199.404 200.671 194.259ZM202.674 218.096C185.816 219.786 186 244.181 187.261 256.54C188.473 268.421 192.378 295.351 209.555 292.074C233.5 283.994 232.12 218.007 202.674 218.096Z"/>
	<path fill="#F51C33" transform="scale(2.63329 2.63329)" d="M201.602 223.062C217.462 222.209 220.556 242.262 205.781 246.426C189.534 249.931 186.574 225.713 201.602 223.062Z"/>
</svg>