<?xml version="1.0" encoding="utf-8" ?>
<svg xmlns="http://www.w3.org/2000/svg" xmlns:xlink="http://www.w3.org/1999/xlink" width="1348" height="1348">
	<path fill="#FFCB69" transform="scale(2.63329 2.63329)" d="M430.139 85.9623C437.051 86.1839 426.921 97.6934 425.448 99.1425C421.29 102.005 424.146 88.8049 430.139 85.9623Z"/>
	<path fill="#FFCB69" transform="scale(2.63329 2.63329)" d="M438.832 107.69C446.652 105.515 452.707 111.952 440.224 113.479C427.712 112.742 428.618 108.765 438.832 107.69Z"/>
	<path fill="#F1DCA7" transform="scale(2.63329 2.63329)" d="M72.624 112.579C79.6759 111.851 86.8602 116.404 76.5024 119.278C67.6805 121.157 62.1837 113.844 72.624 112.579Z"/>
	<path fill="#F1DCA7" transform="scale(2.63329 2.63329)" d="M79.4865 89.744C84.7891 89.5093 94.287 100.862 89.6823 102.873C85.7334 102.159 73.1184 94.2932 79.4865 89.744Z"/>
	<path fill="#F1DCA7" transform="scale(2.63329 2.63329)" d="M102.845 79.1546C110.564 79.2891 105.867 96.2284 103.689 99.6374C99.6856 99.9939 98.6263 83.6447 102.845 79.1546Z"/>
	<path fill="#F1DCA7" transform="scale(2.63329 2.63329)" d="M127.256 369.546C131.787 370.214 134.212 391.719 129.916 394.049C120.18 393.281 125.04 374.81 127.256 369.546Z"/>
	<path fill="#FFCB69" transform="scale(2.63329 2.63329)" d="M400.199 352.091C406.659 352.632 414.994 369.598 410.404 376.062C402.476 381.437 398.34 356.174 400.199 352.091Z"/>
	<path fill="#FFCB69" transform="scale(2.63329 2.63329)" d="M412.876 341.943C418.947 342.315 439.089 348.91 433.672 358.432C426.668 362.298 411.731 349.979 412.876 341.943Z"/>
	<path fill="#F1DCA7" transform="scale(2.63329 2.63329)" d="M93.2967 355.092C95.5243 354.88 98.5778 354.506 95.9886 357.489C90.1847 364.176 80.0021 372.248 70.6544 372.941C68.792 372.562 66.5616 371.588 66.2675 369.455C64.9623 359.99 87.0048 355.738 93.2967 355.092Z"/>
	<path fill="#F1DCA7" transform="scale(2.63329 2.63329)" d="M112.831 362.616C118.619 363.277 108.861 387.299 107.275 390.546C105.516 394.149 102.661 398.691 98.2474 396.28C88.4021 389.405 100.998 376.597 105.342 371.362C107.821 368.373 109.877 365.184 112.831 362.616Z"/>
	<path fill="#997B66" transform="scale(2.63329 2.63329)" d="M362.694 340.914C371.963 339.83 381.776 336.868 390.182 332.825C420.278 318.348 420.925 289.349 423.6 260.481C423.994 256.227 424.311 246.727 425.485 243.337L425.69 243.342L425.837 244.834L424.724 266.029C421.961 318.462 421.679 340.803 361.69 348.384L361.323 348.192C360.96 346.901 362.346 342.464 362.694 340.914Z"/>
	<path fill="#997B66" transform="scale(2.63329 2.63329)" d="M102.845 314.583C106.143 315.514 110.111 320.408 113.284 322.329C151.576 345.515 225.719 347.595 270.098 345.879C279.653 345.509 289.452 345.292 298.934 344.014C303.122 359.862 321.695 380.699 340.076 375.892C344.47 374.743 347.982 371.832 351.491 370.825C346.661 376.982 337.039 380.877 335.442 388.514C332.566 402.269 336.996 414.711 344.277 426.022C330.756 416.859 320.217 405.801 314.444 390.053C294.418 388.924 285.308 376.305 284.092 356.758C279.632 356.684 275.187 357.175 270.739 357.441L248.002 358.581C242.372 358.895 238.083 358.773 232.694 358.937C189.455 360.254 117.974 364.3 102.845 314.583Z"/>
	<path fill="#F1DCA7" transform="scale(2.63329 2.63329)" d="M102.845 314.583C101.53 311.743 99.895 309.049 98.5159 306.236C87.7797 284.339 86.4681 250.475 85.5612 226.541C84.6751 203.152 81.6157 139.331 101.992 123.467C118.625 110.517 145.589 107.827 166.245 105.559C197.382 102.14 228.623 100.416 259.913 99.1846C294.52 97.8232 333.674 96.5985 367.727 103.716C391.561 108.698 410.446 116.865 419.388 140.607C428.494 164.782 427.233 209.205 426.124 237.09C426.022 239.652 426.171 242.292 425.837 244.834L425.69 243.342L425.485 243.337C424.311 246.727 423.994 256.227 423.6 260.481C420.925 289.349 420.278 318.348 390.182 332.825C381.776 336.868 371.963 339.83 362.694 340.914C362.346 342.464 360.96 346.901 361.323 348.192L361.69 348.384L360.985 348.615C358.022 354.587 357.02 367.079 351.491 370.825C347.982 371.832 344.47 374.743 340.076 375.892C321.695 380.699 303.122 359.862 298.934 344.014C289.452 345.292 279.653 345.509 270.098 345.879C225.719 347.595 151.576 345.515 113.284 322.329C110.111 320.408 106.143 315.514 102.845 314.583ZM264.71 106.292L266.099 106.758L266.08 106.966C263.303 107.469 268.959 107.316 269.435 107.69C289.754 107.627 310.093 109.022 330.391 109.81C336.431 110.045 341.832 111.196 348.046 110.949C324.056 105.347 289.515 106.273 264.71 106.292Z"/>
	<path fill="#FEFEFE" transform="scale(2.63329 2.63329)" d="M269.435 107.69C264.391 107.77 259.115 107.73 254.091 107.303C257.348 106.373 261.323 106.513 264.71 106.292L266.099 106.758L266.08 106.966C263.303 107.469 268.959 107.316 269.435 107.69Z"/>
	<path fill="#FEFEFE" transform="scale(2.63329 2.63329)" d="M152.309 116.922C157.234 117.423 156.304 121.198 152.977 123.123C149.022 123.37 150.562 118.544 152.309 116.922Z"/>
	<path fill="#FEFEFE" transform="scale(2.63329 2.63329)" d="M130.705 134.488C134.858 133.991 135.733 139.567 131.771 140.136C127.346 140.533 128.268 136.391 130.705 134.488Z"/>
	<path fill="#FEFEFE" transform="scale(2.63329 2.63329)" d="M135.647 121.306C136.985 121.169 144.958 121.202 144.8 123.185C139.762 127.73 126.944 124.675 122.157 141.486C121.544 143.717 121.314 146.145 120.929 148.43L120.674 148.544C120.019 147.692 119.826 146.661 119.626 145.624C117.381 134.004 123.919 123.517 135.647 121.306Z"/>
	<path fill="#AB682B" transform="scale(2.63329 2.63329)" d="M339.893 243.297C340.88 245.393 340.772 247.747 341.356 249.951C347.103 271.653 382.676 273.635 397.533 255.049C398.282 254.112 399.186 252.329 400.199 251.741C397.855 261.787 393.886 269.71 384.831 275.351C370.351 284.372 346.677 280.991 337.496 265.758L336.881 264.731C338.476 259.239 338.967 250.514 338.728 244.834L339.893 243.297Z"/>
	<path fill="#D08C60" transform="scale(2.63329 2.63329)" d="M348.046 185.531C352.634 177.543 358.412 170.813 367.599 168.305C378.412 165.353 397.745 169.098 401.057 181.86C402.409 187.072 400.446 188.847 399.413 193.439C394.617 220.091 383.795 197.278 368.485 197.841C371.99 201.95 377.046 204.599 381.397 207.694C398.422 219.802 406.238 231.594 400.199 251.741C399.186 252.329 398.282 254.112 397.533 255.049C382.676 273.635 347.103 271.653 341.356 249.951C340.772 247.747 340.88 245.393 339.893 243.297C347.034 224.317 354.508 238.545 360.978 245.146C365.064 249.316 372.321 248.125 377.509 247.503C367.053 234.622 344.136 229.002 340.938 211.143C339.223 201.571 342.707 193.309 348.046 185.531Z"/>
	<path fill="#AB682B" transform="scale(2.63329 2.63329)" d="M368.485 197.841C366.525 192.96 368.491 188.553 373.43 186.666C381.292 183.663 388.318 191.947 394.86 194.889C396.083 194.547 398.325 193.128 399.413 193.439C394.617 220.091 383.795 197.278 368.485 197.841Z"/>
	<path fill="#AB682B" transform="scale(2.63329 2.63329)" d="M377.509 247.503C367.053 234.622 344.136 229.002 340.938 211.143C339.223 201.571 342.707 193.309 348.046 185.531C344.329 202.344 349.443 210.312 362.63 219.538C371.333 225.628 393.903 236.383 377.509 247.503Z"/>
	<path fill="#D08C60" transform="scale(2.63329 2.63329)" d="M309.857 177.521C312.118 173.334 315.042 167.778 319.966 166.363C337.383 161.357 337.969 217.032 338.228 226.159L338.549 238.958C338.589 240.806 338.351 243.037 338.728 244.834C338.967 250.514 338.476 259.239 336.881 264.731C336.052 266.117 335.361 267.658 335.029 269.246C332.315 276.729 329.089 288.531 317.106 279.719C307.505 272.659 308.384 249.673 306.865 238.586C301.448 256.637 288.953 253.369 280.272 240.025C277.447 249.437 281.579 253.267 274.307 267.689C273.327 270.921 272.478 275.178 270.047 277.621C265.874 281.815 258.487 279.222 255.016 275.416C249.54 269.41 249.251 259.422 249.696 251.741C254.536 238.698 252.457 229.562 253.232 217.045L253.264 216.552C253.549 207.769 255.847 184.89 262.429 179.99C264.587 176.993 264.869 173.151 268.181 171.006C283.994 160.768 290.754 192.629 296.795 202.193C300.637 193.638 304.9 185.486 309.857 177.521Z"/>
	<path fill="#AB682B" transform="scale(2.63329 2.63329)" d="M309.857 177.521C309.864 177.996 299.975 201.526 298.934 206.237C298.149 204.927 297.289 203.645 296.795 202.193C300.637 193.638 304.9 185.486 309.857 177.521Z"/>
	<path fill="#AB682B" transform="scale(2.63329 2.63329)" d="M253.264 216.552C253.549 207.769 255.847 184.89 262.429 179.99C262.665 185.755 261.055 191.525 260.315 197.212C258.938 207.798 248.378 269.243 268.666 268.513C270.505 268.447 272.521 267.601 274.307 267.689C273.327 270.921 272.478 275.178 270.047 277.621C265.874 281.815 258.487 279.222 255.016 275.416C249.54 269.41 249.251 259.422 249.696 251.741C254.536 238.698 252.457 229.562 253.232 217.045L253.264 216.552Z"/>
	<path fill="#AB682B" transform="scale(2.63329 2.63329)" d="M280.272 217.193C285.287 223.875 294.84 244.61 303.723 238.092C308.211 234.799 311.476 224.736 314.444 219.701C313.629 228.934 315.859 250.84 318.726 259.977C321.256 268.038 326.811 272.208 335.029 269.246C332.315 276.729 329.089 288.531 317.106 279.719C307.505 272.659 308.384 249.673 306.865 238.586C301.448 256.637 288.953 253.369 280.272 240.025C279.527 232.83 280.719 224.669 280.272 217.193Z"/>
	<path fill="#797D62" transform="scale(2.63329 2.63329)" d="M188.169 192.458C192.006 184.385 196.146 177.851 204.904 174.676C228.018 166.295 245.651 181.682 250.647 204.122C251.32 207.145 251.838 214.34 253.264 216.552L253.232 217.045C252.457 229.562 254.536 238.698 249.696 251.741C248.523 253.123 248.273 255.055 247.374 256.585C241.983 274.312 222.176 284.27 204.576 278.793C187.169 273.377 185.223 265.901 178.228 252.445C178.13 257.394 178.912 262.735 176.836 267.425C176.186 268.894 174.816 269.978 174.189 271.444C164.763 302.461 139.047 265.891 134.245 251.741C132.251 263.811 138.136 265.244 130.705 277.493C127.421 286.404 117.029 292.484 112.278 283.806C105.822 272.014 103.662 221.644 103.677 207.926C103.687 199.202 101.798 191.249 110.803 186.753C115.433 163.667 130 180.283 137.126 192.521C138.484 194.854 152.393 219.528 152.827 219.799L152.977 219.701C152.808 209.011 147.613 187.986 158.387 183.459C161.153 175.247 170.326 174.004 173.588 180.59C177.237 187.961 175.742 220.12 178.012 223.149L178.228 223.177C178.841 213.425 183.088 200.728 188.169 192.458Z"/>
	<path fill="#F1DCA7" transform="scale(2.63329 2.63329)" d="M205.43 204.925C231.088 195.023 229.668 232.976 226.133 247.503C223.62 249.47 218.787 249.511 215.762 249.059C197.568 246.339 202.601 206.87 205.43 204.925Z"/>
</svg>
