<?xml version="1.0" encoding="utf-8" ?>
<svg xmlns="http://www.w3.org/2000/svg" xmlns:xlink="http://www.w3.org/1999/xlink" width="1024" height="1024">
	<path fill="#D08C60" transform="scale(2 2)" d="M183.773 140.476C180.679 140.46 168.305 140.277 166.414 138.616C167.914 137.409 178.692 137.582 180.902 137.638C185.334 138.423 192.061 137.007 195.885 139.514L195.973 140.001C194.069 141.689 186.472 140.301 183.773 140.476Z"/>
	<path fill="#D08C60" transform="scale(2 2)" d="M183.773 145.519C186.219 145.088 198.132 142.692 199.391 143.48L199.413 143.918C194.903 146.548 188.784 147.186 183.773 148.329C178.31 149.532 172.183 150.276 166.595 150.193C171.839 147.477 177.985 146.467 183.773 145.519Z"/>
	<path fill="#D08C60" transform="scale(2 2)" d="M183.773 133.052C178.653 130.685 173.022 129.739 167.877 127.463L167.922 127.105C170.201 126.203 181.008 128.779 183.773 129.799C187.463 130.733 194.646 133.251 197.551 135.674L197.308 136.402C192.59 136.197 188.365 133.924 183.773 133.052Z"/>
	<path fill="#997B66" transform="scale(2 2)" d="M219.063 212.013L219.229 211.11C220.068 210.634 236.365 211.887 237.367 212.5C234.912 219.627 232.201 220.521 229.501 212.5L225.979 212.013C224.564 214.648 223.523 217.017 220.75 218.494C220.094 218.051 219.6 217.604 219.063 217.023C218.646 215.313 218.762 213.726 219.063 212.013Z"/>
	<path fill="#997B66" transform="scale(2 2)" d="M257.49 210.626C260.115 209.919 263.36 208.103 266.065 208.289C265.655 210.086 265.308 211.911 264.859 213.697C263.976 214.759 263.156 216.084 262.166 217.023C260.884 215.276 259.44 211.423 257.49 210.626C255.316 212.352 255.281 217.711 252.137 217.741C249.502 217.766 249.01 213.804 248.248 212.013C249.106 211.066 255.84 210.751 257.49 210.626Z"/>
	<path fill="#D08C60" transform="scale(2 2)" d="M290.809 129.799C294.631 128.825 306.048 126.077 309.256 126.901L309.299 127.249C305.602 130.45 296.26 130.721 290.809 133.052C287.098 132.999 275.806 137.386 274.014 136.568L273.862 136.151C275.177 133.125 287.511 130.267 290.809 129.799Z"/>
	<path fill="#997B66" transform="scale(2 2)" d="M456.14 252.956C456.997 253.342 457.606 253.771 458.301 254.401C468.212 265.428 443.265 288.362 434.328 261C433.946 259.798 433.504 258.616 433.074 257.431C433.409 256.777 433.797 256.396 434.328 255.91C440.218 253.821 449.892 253.028 456.14 252.956Z"/>
	<path fill="#797D62" transform="scale(2 2)" d="M456.14 252.956C456.997 253.342 457.606 253.771 458.301 254.401C457.087 255.987 436.825 260.566 434.328 261C433.946 259.798 433.504 258.616 433.074 257.431C433.409 256.777 433.797 256.396 434.328 255.91C440.218 253.821 449.892 253.028 456.14 252.956Z"/>
	<path fill="#997B66" transform="scale(2 2)" d="M297.766 177.216C297.057 165.268 305.743 151.537 318.518 150.752C333.694 149.82 345.161 168.217 338.422 181.238C336.463 182.338 333.667 184.282 331.453 182.793C330.025 182.047 328.648 180.501 327.441 179.407C319.628 184.87 317.702 189.839 311.852 177.216C306.525 181.698 301.613 184.788 297.766 177.216Z"/>
	<path fill="#997B66" transform="scale(2 2)" d="M342.333 372.39C347.351 371.859 350.731 373.469 355.463 369.362C360.782 364.744 359.141 357.094 359.068 350.86C358.663 315.845 359.589 281.34 358.337 246.292C358.095 239.515 357.655 228.596 358.227 221.905L358.25 221.671C366.126 237.486 365.681 241.075 365.982 257.875L368.035 353.5C368.12 358.835 369.007 379.151 367.892 382.529C363.897 394.625 341.863 397.652 342.333 372.39Z"/>
	<path fill="#997B66" transform="scale(2 2)" d="M119.071 372.39L119.292 372.078C120.41 371.661 136.068 380.283 140.761 366.297C142.285 361.755 141.56 343.622 141.375 337.819L138.791 252.009C138.65 248.359 136.875 227.299 138.475 225.04C146.941 229.976 147.541 232.737 147.828 241.739L151.403 368.661C151.595 374.103 152.633 379.992 149.573 384.854C145.21 391.787 136.47 394.216 129.495 389.526C123.963 385.807 121.756 378.152 119.071 372.39Z"/>
	<path fill="#997B66" transform="scale(2 2)" d="M238.203 243.961C241.543 248.916 244.357 253.462 245.89 259.312C251.103 279.205 250.175 322.813 248.68 345.447C247.613 361.605 245.692 375.713 230.764 385.535C221.1 391.894 206.442 393.873 195.165 391.531C177.286 387.817 170.752 375.338 166.595 359.229L167.146 359.13C168.8 360.05 170.298 362.22 171.679 363.567C187.002 378.51 213.548 376.43 227.996 361.254C242.057 346.484 239.899 316.43 239.904 297.716C239.909 282.993 239.891 268.379 238.2 253.736C237.908 251.209 236.23 245.969 238.203 243.961Z"/>
	<path fill="#D9AE94" transform="scale(2 2)" d="M174.069 179.407C174.207 177.331 172.98 171.596 175.496 170.691C177.83 171.789 178.54 178.794 179.641 181.24C180.884 184.003 188.024 183.796 190.155 182.793C189.556 180.577 189.116 178.409 188.27 176.263C190.833 175.758 198.124 183.571 201.258 185.657C225.264 201.631 266.552 198.784 287.185 177.894C287.628 177.445 287.867 177.318 288.487 177.216C287.764 184.009 284.438 190.019 281.311 195.949C295.266 194.341 294.732 190.302 297.766 177.216C301.613 184.788 306.525 181.698 311.852 177.216C317.702 189.839 319.628 184.87 327.441 179.407C328.648 180.501 330.025 182.047 331.453 182.793C333.667 184.282 336.463 182.338 338.422 181.238C328.975 211.496 300.121 214.121 273.733 204.041C271.677 205.318 268.414 207.923 266.065 208.289C263.36 208.103 260.115 209.919 257.49 210.626C255.84 210.751 249.106 211.066 248.248 212.013C245.987 212.291 239.408 212.91 237.367 212.5C236.365 211.887 220.068 210.634 219.229 211.11L219.063 212.013C218.948 211.524 218.879 211.514 218.558 211.161C207.358 207.956 201.84 203.625 195.041 194.294C185.271 202.327 162.505 197.896 155.697 189.226C152.331 184.939 165.562 188.401 166.595 188.763C151.719 178.107 152.553 175.475 169.106 182.793C167.893 180.852 162.533 173.149 164.823 171.1C168.13 171.28 171.567 177.027 173.705 179.066L174.069 179.407Z"/>
	<path fill="#D9AE94" transform="scale(2 2)" d="M278.672 79.469C280.722 87.8491 282.786 96.2629 284.482 104.724C285.293 108.772 287.971 128.329 290.809 129.799C287.511 130.267 275.177 133.125 273.862 136.151L274.014 136.568C275.806 137.386 287.098 132.999 290.809 133.052C290.792 134.58 290.751 136.111 290.809 137.638C293.16 137.434 295.426 137.216 297.766 137.638C300.566 137.551 307.135 137.264 309.422 138.331C308.113 140.397 293.51 140.375 290.809 140.476L290.809 145.519C295.816 145.484 304.534 148.101 308.655 150.751C302.758 150.328 297.065 148.807 291.202 148.329C290.399 149.193 291.065 156.861 290.809 158.82C290.696 164.838 290.321 171.469 288.487 177.216C287.867 177.318 287.628 177.445 287.185 177.894C266.552 198.784 225.264 201.631 201.258 185.657C198.124 183.571 190.833 175.758 188.27 176.263C187.233 169.592 185.756 163.057 184.883 156.341C184.602 154.697 184.544 149.253 183.773 148.329C188.784 147.186 194.903 146.548 199.413 143.918L199.391 143.48C198.132 142.692 186.219 145.088 183.773 145.519C183.798 143.837 183.797 142.158 183.773 140.476C186.472 140.301 194.069 141.689 195.973 140.001L195.885 139.514C192.061 137.007 185.334 138.423 180.902 137.638C184.433 137.55 183.737 136.17 183.773 133.052C188.365 133.924 192.59 136.197 197.308 136.402L197.551 135.674C194.646 133.251 187.463 130.733 183.773 129.799C188.438 116.732 188.822 117.431 190.162 103.18C190.869 95.6613 191.754 87.7456 193.184 80.3334C199.978 86.4316 206.696 94.3292 213.628 99.7549C217.162 97.2272 221.823 96.3107 225.979 95.3164C232.896 94.1054 240.29 93.3055 247.133 95.3164C251.748 95.7028 255.831 97.0965 260.172 98.599C263.922 93.988 274.144 82.4896 278.672 79.469Z"/>
	<path fill="#D08C60" transform="scale(2 2)" d="M291.202 148.329C287.868 146.565 274.529 145.548 273.168 143.877L273.342 143.499C275.919 142.423 287.944 144.643 290.809 145.519C295.816 145.484 304.534 148.101 308.655 150.751C302.758 150.328 297.065 148.807 291.202 148.329Z"/>
	<path fill="#D08C60" transform="scale(2 2)" d="M297.766 137.638C300.566 137.551 307.135 137.264 309.422 138.331C308.113 140.397 293.51 140.375 290.809 140.476C285.109 139.812 279.159 141.151 273.477 140.197L273.42 139.9C279.108 136.887 291.154 137.869 297.766 137.638Z"/>
	<path fill="#D08C60" transform="scale(2 2)" d="M195.956 91.7995C198.925 92.4208 204.91 101.006 207.006 103.579C205.078 104.764 203.23 106.069 201.37 107.358C199.307 108.863 197.276 110.387 195.041 111.634C195.035 106.271 194.335 96.6574 195.956 91.7995Z"/>
	<path fill="#D08C60" transform="scale(2 2)" d="M275.246 90.9107C276.14 91.9775 279.577 111.074 279.988 113.452C278.482 111.851 276.879 110.389 275.246 108.921C272.271 106.644 269.2 104.606 266.065 102.553C268.935 98.8202 271.603 93.8583 275.246 90.9107Z"/>
	<path fill="#997B66" transform="scale(2 2)" d="M257.49 123.57C265.957 122.458 266.823 137.039 260.172 140.705C251.946 141.337 250.456 127.326 257.49 123.57Z"/>
	<path fill="#997B66" transform="scale(2 2)" d="M214.768 123.57C223.102 124.332 221.921 138.191 214.768 140.705C205.913 140.664 207.398 125.44 214.768 123.57Z"/>
	<path fill="#FFCB69" transform="scale(2 2)" d="M225.979 95.3164C232.896 94.1054 240.29 93.3055 247.133 95.3164C242.893 106.196 239.907 121.882 235.935 130.684C234.689 127.025 226.206 98.697 225.979 95.3164Z"/>
	<path fill="#D08C60" transform="scale(2 2)" d="M220.75 145.519C220.92 135.533 243.167 135.634 248.873 141.737C251.287 144.318 250.81 145.969 249.969 148.951C245.203 158.932 231.726 163.642 224.497 154.579C221.775 152.585 220.467 148.774 220.75 145.519Z"/>
	<path fill="#BE7B24" transform="scale(2 2)" d="M220.75 145.519C224.533 146.871 224.099 154.489 234.368 156.341C234.89 162.29 226.106 154.704 224.497 154.579C221.775 152.585 220.467 148.774 220.75 145.519Z"/>
	<defs>
		<linearGradient id="gradient_0" gradientUnits="userSpaceOnUse" x1="232.66374" y1="149.34085" x2="246.84511" y2="155.01283">
			<stop offset="0" stop-color="#9B6723"/>
			<stop offset="1" stop-color="#C27D2D"/>
		</linearGradient>
	</defs>
	<path fill="url(#gradient_0)" transform="scale(2 2)" d="M238.203 156.341C243.138 153.902 245.394 151.093 248.248 146.499C248.93 147.25 249.435 148.095 249.969 148.951C245.203 158.932 231.726 163.642 224.497 154.579C226.106 154.704 234.89 162.29 234.368 156.341C231.64 143.084 235.944 142.519 238.203 156.341Z"/>
	<path fill="#D08C60" transform="scale(2 2)" d="M184.883 156.341C187.061 157.025 188.427 158.859 190.279 160.075C215.145 176.411 263.87 176.511 287.12 158.512C287.929 157.885 289.707 156.125 290.627 156.256L290.809 158.82C290.696 164.838 290.321 171.469 288.487 177.216C287.867 177.318 287.628 177.445 287.185 177.894C266.552 198.784 225.264 201.631 201.258 185.657C198.124 183.571 190.833 175.758 188.27 176.263C187.233 169.592 185.756 163.057 184.883 156.341Z"/>
	<path fill="#997B66" transform="scale(2 2)" d="M374.313 276.715C366.202 263.59 366.132 242.542 374.173 229.408C386.417 209.408 414.548 202.117 434.667 214.698C449.939 224.248 452.365 236.587 456.14 252.956C449.892 253.028 440.218 253.821 434.328 255.91C433.797 256.396 433.409 256.777 433.074 257.431C428.765 249.793 418.955 248.42 411.605 252.672C405.489 256.209 403.055 262.961 401.759 269.518C402.082 273.951 412.463 277.341 415.933 279.077C429.244 285.736 441.684 294.349 448.22 308.281C450.454 313.044 451.913 318.441 454.635 324.205C462.805 341.504 463.478 363.869 450.324 378.963C429.151 403.259 390.229 396.583 380.165 364.902C379.264 362.066 378.775 359.084 377.539 356.362C373.915 348.386 364.894 336.17 372.237 327.768C376.713 322.647 385.623 321.422 390.687 326.339C397.91 333.351 397.214 352.005 411.502 352.131C422.037 352.224 431.38 337.348 428.353 331.742C425.322 328.937 422.893 325.57 419.425 323.237C405.788 314.064 392.376 313.833 382.812 296.925C379.212 290.56 377.273 283.389 374.313 276.715Z"/>
	<path fill="#9B9B7A" transform="scale(2 2)" d="M166.595 359.229C164.947 354.936 162.441 351.157 161.146 346.681C156.046 329.068 156.385 270.665 159.379 252.138C164.179 222.43 190.575 200.916 219.063 217.023C219.6 217.604 220.094 218.051 220.75 218.494C234.229 226.69 232.23 233.522 238.203 243.961C236.23 245.969 237.908 251.209 238.2 253.736C239.891 268.379 239.909 282.993 239.904 297.716C239.899 316.43 242.057 346.484 227.996 361.254C213.548 376.43 187.002 378.51 171.679 363.567C170.298 362.22 168.8 360.05 167.146 359.13L166.595 359.229ZM190.155 349.774C196.596 357.058 207.743 353.673 211.041 344.872C215.417 333.194 214.264 311.057 214.266 298.12C214.266 293.609 213.294 258.483 213.628 257.431C187.014 240.383 188.257 283.501 188.258 298.362C188.259 310.814 187.506 338.218 190.155 349.774Z"/>
	<path fill="#997B66" transform="scale(2 2)" d="M190.155 349.774C179.257 349.17 180.896 307.253 180.892 299.771C180.882 282.883 177.509 252.572 190.317 240.516C202.942 228.632 214.402 244.893 213.628 257.431C187.014 240.383 188.257 283.501 188.258 298.362C188.259 310.814 187.506 338.218 190.155 349.774Z"/>
	<path fill="#D08C60" transform="scale(2 2)" d="M115.157 306.539C116.088 298.349 115.04 289.576 114.72 281.333C114.317 270.98 111.308 228.024 113.622 219.351C118.216 202.132 143.55 213.234 138.475 225.04C136.875 227.299 138.65 248.359 138.791 252.009L141.375 337.819C141.56 343.622 142.285 361.755 140.761 366.297C136.068 380.283 120.41 371.661 119.292 372.078L119.071 372.39C114.489 361.788 108.86 350.794 104.063 340.026L93.3664 316.406C92.277 314.027 86.4168 297.256 86.4666 305.053L86.4565 371.087C86.4533 374.235 86.635 377.56 86.1293 380.673C84.0164 393.678 61.4941 398.959 59.9405 372.39C48.3847 370.855 50.5521 352.682 50.6942 344.999L51.7273 268.81C51.9368 259.584 50.1606 225.362 53.2269 218.755C56.56 211.574 64.9609 208.561 72.0704 211.972C77.3658 214.512 79.3058 220.7 81.4944 225.71L87.5056 239.443C97.0118 260.873 107.193 284.488 115.157 306.539Z"/>
	<path fill="#997B66" transform="scale(2 2)" d="M59.9405 372.39C75.8799 374.168 76.982 363.413 76.8848 351.94L76.8624 297.774C76.8684 292.751 77.1905 287.632 77.0101 282.627C76.9809 281.815 74.6795 274.999 75.6051 276.08C77.0386 277.755 84.8155 296.013 85.7377 298.865C86.4562 301.088 86.0628 302.898 86.4666 305.053L86.4565 371.087C86.4533 374.235 86.635 377.56 86.1293 380.673C84.0164 393.678 61.4941 398.959 59.9405 372.39Z"/>
	<path fill="#D9AE94" transform="scale(2 2)" d="M308.655 281.817C312.412 269.132 317.961 256.87 322.57 244.459L328.197 228.833C331.662 219.104 335.494 206.843 348.532 210.708C353.815 212.274 356.9 216.571 358.25 221.671L358.227 221.905C357.655 228.596 358.095 239.515 358.337 246.292C359.589 281.34 358.663 315.845 359.068 350.86C359.141 357.094 360.782 364.744 355.463 369.362C350.731 373.469 347.351 371.859 342.333 372.39C338.88 371.663 334.904 366.772 334.094 363.56C331.814 354.517 333.816 326.343 333.439 315.459C328.339 324.433 328.393 342.024 316.571 345.369C302.518 349.344 298.969 328.483 295.154 319.561C293.174 315.971 290.691 309.061 289.85 305.053C289.213 303.363 288.513 301.686 287.915 299.984C287.629 321.332 289.655 342.651 289.844 364.001C289.881 368.091 290.6 375.133 290.003 378.82C288.221 389.835 272.688 395.841 264.891 387.17C260.261 382.021 262.065 378.003 261.247 372.39C250.827 370.486 252.009 354.704 252.295 347.358L255.322 268.826C255.6 258.343 254.226 224.052 262.166 217.023C263.156 216.084 263.976 214.759 264.859 213.697C284.471 204.904 288.093 225.109 293.129 239.566L301.061 262.341C302.759 267.273 305.763 277.974 308.655 281.817Z"/>
	<path fill="#997B66" transform="scale(2 2)" d="M295.154 319.561C296.948 320.259 299.339 324.258 302.651 325.581C320.334 332.643 325.701 296.689 328.836 285.866C329.397 283.928 332.454 271.703 333.859 271.081C334.835 273.369 333.671 314.674 333.439 315.459C328.339 324.433 328.393 342.024 316.571 345.369C302.518 349.344 298.969 328.483 295.154 319.561Z"/>
	<path fill="#997B66" transform="scale(2 2)" d="M261.247 372.39C265.55 371.353 268.948 374.598 274.324 369.818C282.692 362.379 279.985 348.269 279.987 338.236L279.994 294.856C279.993 287.881 279.585 280.816 279.988 273.861C282.098 279.665 290.059 303.178 289.85 305.053C289.213 303.363 288.513 301.686 287.915 299.984C287.629 321.332 289.655 342.651 289.844 364.001C289.881 368.091 290.6 375.133 290.003 378.82C288.221 389.835 272.688 395.841 264.891 387.17C260.261 382.021 262.065 378.003 261.247 372.39Z"/>
</svg>
